<svg width="304" height="270" viewBox="0 0 304 270" fill="none" xmlns="http://www.w3.org/2000/svg">
<rect width="304" height="270" fill="#EBEBEB"/>
<path d="M119.831 86.0909V121H115.74L96.7173 93.5909H96.3764V121H92.1491V86.0909H96.2401L115.331 113.568H115.672V86.0909H119.831ZM138.722 121.545C136.199 121.545 134.023 120.989 132.193 119.875C130.375 118.75 128.972 117.182 127.983 115.17C127.006 113.148 126.517 110.795 126.517 108.114C126.517 105.432 127.006 103.068 127.983 101.023C128.972 98.9659 130.347 97.3636 132.108 96.2159C133.881 95.0568 135.949 94.4773 138.312 94.4773C139.676 94.4773 141.023 94.7045 142.352 95.1591C143.682 95.6136 144.892 96.3523 145.983 97.375C147.074 98.3864 147.943 99.7273 148.591 101.398C149.239 103.068 149.562 105.125 149.562 107.568V109.273H129.381V105.795H145.472C145.472 104.318 145.176 103 144.585 101.841C144.006 100.682 143.176 99.767 142.097 99.0966C141.028 98.4261 139.767 98.0909 138.312 98.0909C136.71 98.0909 135.324 98.4886 134.153 99.2841C132.994 100.068 132.102 101.091 131.477 102.352C130.852 103.614 130.54 104.966 130.54 106.409V108.727C130.54 110.705 130.881 112.381 131.562 113.756C132.256 115.119 133.216 116.159 134.443 116.875C135.67 117.58 137.097 117.932 138.722 117.932C139.778 117.932 140.733 117.784 141.585 117.489C142.449 117.182 143.193 116.727 143.818 116.125C144.443 115.511 144.926 114.75 145.267 113.841L149.153 114.932C148.744 116.25 148.057 117.409 147.091 118.409C146.125 119.398 144.932 120.17 143.511 120.727C142.091 121.273 140.494 121.545 138.722 121.545ZM161.614 121L153.636 94.8182H157.864L163.523 114.864H163.795L169.386 94.8182H173.682L179.205 114.795H179.477L185.136 94.8182H189.364L181.386 121H177.432L171.705 100.886H171.295L165.568 121H161.614ZM213.227 100.682L209.614 101.705C209.386 101.102 209.051 100.517 208.608 99.9489C208.176 99.3693 207.585 98.892 206.835 98.517C206.085 98.142 205.125 97.9545 203.955 97.9545C202.352 97.9545 201.017 98.3239 199.949 99.0625C198.892 99.7898 198.364 100.716 198.364 101.841C198.364 102.841 198.727 103.631 199.455 104.21C200.182 104.79 201.318 105.273 202.864 105.659L206.75 106.614C209.091 107.182 210.835 108.051 211.983 109.222C213.131 110.381 213.705 111.875 213.705 113.705C213.705 115.205 213.273 116.545 212.409 117.727C211.557 118.909 210.364 119.841 208.83 120.523C207.295 121.205 205.511 121.545 203.477 121.545C200.807 121.545 198.597 120.966 196.847 119.807C195.097 118.648 193.989 116.955 193.523 114.727L197.341 113.773C197.705 115.182 198.392 116.239 199.403 116.943C200.426 117.648 201.761 118 203.409 118C205.284 118 206.773 117.602 207.875 116.807C208.989 116 209.545 115.034 209.545 113.909C209.545 113 209.227 112.239 208.591 111.625C207.955 111 206.977 110.534 205.659 110.227L201.295 109.205C198.898 108.636 197.136 107.756 196.011 106.562C194.898 105.358 194.341 103.852 194.341 102.045C194.341 100.568 194.756 99.2614 195.585 98.125C196.426 96.9886 197.568 96.0966 199.011 95.4489C200.466 94.8011 202.114 94.4773 203.955 94.4773C206.545 94.4773 208.58 95.0455 210.057 96.1818C211.545 97.3182 212.602 98.8182 213.227 100.682ZM91.1264 144.091V179H86.8991V144.091H91.1264ZM99.0568 179V152.818H102.943V156.909H103.284C103.83 155.511 104.71 154.426 105.926 153.653C107.142 152.869 108.602 152.477 110.307 152.477C112.034 152.477 113.472 152.869 114.619 153.653C115.778 154.426 116.682 155.511 117.33 156.909H117.602C118.273 155.557 119.278 154.483 120.619 153.688C121.96 152.881 123.568 152.477 125.443 152.477C127.784 152.477 129.699 153.21 131.188 154.676C132.676 156.131 133.42 158.398 133.42 161.477V179H129.398V161.477C129.398 159.545 128.869 158.165 127.812 157.335C126.756 156.506 125.511 156.091 124.08 156.091C122.239 156.091 120.813 156.648 119.801 157.761C118.79 158.864 118.284 160.261 118.284 161.955V179H114.193V161.068C114.193 159.58 113.71 158.381 112.744 157.472C111.778 156.551 110.534 156.091 109.011 156.091C107.966 156.091 106.989 156.369 106.08 156.926C105.182 157.483 104.455 158.256 103.898 159.244C103.352 160.222 103.08 161.352 103.08 162.636V179H99.0568ZM148.48 179.614C146.821 179.614 145.315 179.301 143.963 178.676C142.611 178.04 141.537 177.125 140.741 175.932C139.946 174.727 139.548 173.273 139.548 171.568C139.548 170.068 139.844 168.852 140.435 167.92C141.026 166.977 141.815 166.239 142.804 165.705C143.793 165.17 144.884 164.773 146.077 164.511C147.281 164.239 148.491 164.023 149.707 163.864C151.298 163.659 152.588 163.506 153.577 163.403C154.577 163.29 155.304 163.102 155.759 162.841C156.224 162.58 156.457 162.125 156.457 161.477V161.341C156.457 159.659 155.997 158.352 155.077 157.42C154.168 156.489 152.787 156.023 150.935 156.023C149.014 156.023 147.509 156.443 146.418 157.284C145.327 158.125 144.56 159.023 144.116 159.977L140.298 158.614C140.98 157.023 141.889 155.784 143.026 154.898C144.173 154 145.423 153.375 146.776 153.023C148.139 152.659 149.48 152.477 150.798 152.477C151.639 152.477 152.605 152.58 153.696 152.784C154.798 152.977 155.861 153.381 156.884 153.994C157.918 154.608 158.776 155.534 159.457 156.773C160.139 158.011 160.48 159.67 160.48 161.75V179H156.457V175.455H156.253C155.98 176.023 155.526 176.631 154.889 177.278C154.253 177.926 153.406 178.477 152.349 178.932C151.293 179.386 150.003 179.614 148.48 179.614ZM149.094 176C150.685 176 152.026 175.688 153.116 175.062C154.219 174.438 155.048 173.631 155.605 172.642C156.173 171.653 156.457 170.614 156.457 169.523V165.841C156.287 166.045 155.912 166.233 155.332 166.403C154.764 166.562 154.105 166.705 153.355 166.83C152.616 166.943 151.895 167.045 151.19 167.136C150.497 167.216 149.935 167.284 149.503 167.341C148.457 167.477 147.48 167.699 146.571 168.006C145.673 168.301 144.946 168.75 144.389 169.352C143.844 169.943 143.571 170.75 143.571 171.773C143.571 173.17 144.088 174.227 145.122 174.943C146.168 175.648 147.491 176 149.094 176ZM178.391 189.364C176.447 189.364 174.777 189.114 173.379 188.614C171.982 188.125 170.817 187.477 169.885 186.67C168.964 185.875 168.232 185.023 167.686 184.114L170.891 181.864C171.254 182.341 171.714 182.886 172.271 183.5C172.828 184.125 173.589 184.665 174.555 185.119C175.533 185.585 176.811 185.818 178.391 185.818C180.504 185.818 182.249 185.307 183.624 184.284C184.999 183.261 185.686 181.659 185.686 179.477V174.159H185.345C185.05 174.636 184.629 175.227 184.084 175.932C183.55 176.625 182.777 177.244 181.766 177.79C180.766 178.324 179.413 178.591 177.709 178.591C175.595 178.591 173.697 178.091 172.016 177.091C170.345 176.091 169.021 174.636 168.044 172.727C167.078 170.818 166.595 168.5 166.595 165.773C166.595 163.091 167.067 160.756 168.01 158.767C168.953 156.767 170.266 155.222 171.947 154.131C173.629 153.028 175.572 152.477 177.777 152.477C179.482 152.477 180.834 152.761 181.834 153.33C182.845 153.886 183.618 154.523 184.152 155.239C184.697 155.943 185.118 156.523 185.413 156.977H185.822V152.818H189.709V179.75C189.709 182 189.197 183.83 188.175 185.239C187.163 186.659 185.8 187.699 184.084 188.358C182.379 189.028 180.482 189.364 178.391 189.364ZM178.254 174.977C179.868 174.977 181.232 174.608 182.345 173.869C183.459 173.131 184.305 172.068 184.885 170.682C185.464 169.295 185.754 167.636 185.754 165.705C185.754 163.818 185.47 162.153 184.902 160.71C184.334 159.267 183.493 158.136 182.379 157.318C181.266 156.5 179.891 156.091 178.254 156.091C176.55 156.091 175.129 156.523 173.993 157.386C172.868 158.25 172.021 159.409 171.453 160.864C170.896 162.318 170.618 163.932 170.618 165.705C170.618 167.523 170.902 169.131 171.47 170.528C172.05 171.915 172.902 173.006 174.027 173.801C175.163 174.585 176.572 174.977 178.254 174.977ZM208.05 179.545C205.527 179.545 203.351 178.989 201.521 177.875C199.703 176.75 198.3 175.182 197.311 173.17C196.334 171.148 195.845 168.795 195.845 166.114C195.845 163.432 196.334 161.068 197.311 159.023C198.3 156.966 199.675 155.364 201.436 154.216C203.209 153.057 205.277 152.477 207.641 152.477C209.004 152.477 210.351 152.705 211.68 153.159C213.01 153.614 214.22 154.352 215.311 155.375C216.402 156.386 217.271 157.727 217.919 159.398C218.567 161.068 218.891 163.125 218.891 165.568V167.273H198.709V163.795H214.8C214.8 162.318 214.504 161 213.913 159.841C213.334 158.682 212.504 157.767 211.425 157.097C210.357 156.426 209.095 156.091 207.641 156.091C206.038 156.091 204.652 156.489 203.482 157.284C202.322 158.068 201.43 159.091 200.805 160.352C200.18 161.614 199.868 162.966 199.868 164.409V166.727C199.868 168.705 200.209 170.381 200.891 171.756C201.584 173.119 202.544 174.159 203.771 174.875C204.999 175.58 206.425 175.932 208.05 175.932C209.107 175.932 210.061 175.784 210.913 175.489C211.777 175.182 212.521 174.727 213.146 174.125C213.771 173.511 214.254 172.75 214.595 171.841L218.482 172.932C218.072 174.25 217.385 175.409 216.419 176.409C215.453 177.398 214.26 178.17 212.839 178.727C211.419 179.273 209.822 179.545 208.05 179.545Z" fill="white"/>
</svg>
